HIERARCHY
ROOT Hips
{
	OFFSET 0.000000 0.000000 0.000000
	CHANNELS 6 Xposition Yposition Zposition Zrotation Yrotation Xrotation 
	JOINT LeftUpLeg_virtual
	{
		OFFSET 0.000000 0.000000 0.000000
		CHANNELS 3 Zrotation Yrotation Xrotation
		JOINT LeftUpLeg
		{
			OFFSET 10.205400 -3.823500 0.155100
			CHANNELS 3 Zrotation Yrotation Xrotation
			JOINT LeftLeg
			{
				OFFSET 0.708757 -12.982077 0.567790
				CHANNELS 3 Zrotation Yrotation Xrotation
				JOINT LeftFoot
				{
					OFFSET -0.708756 -10.717838 -2.184338
					CHANNELS 3 Zrotation Yrotation Xrotation
					JOINT LeftToeBase
					{
						OFFSET 0.108149 -7.191104 7.560241
						CHANNELS 3 Zrotation Yrotation Xrotation
						End Site
						{
							OFFSET 0.000000 0.000000 0.000000
						}
					}
				}
			}
		}
	}
	JOINT RightUpLeg_virtual
	{
		OFFSET 0.000000 0.000000 0.000000
		CHANNELS 3 Zrotation Yrotation Xrotation
		JOINT RightUpLeg
		{
			OFFSET -10.205400 -3.823500 0.005500
			CHANNELS 3 Zrotation Yrotation Xrotation
			JOINT RightLeg
			{
				OFFSET -0.708756 -12.982134 0.610632
				CHANNELS 3 Zrotation Yrotation Xrotation
				JOINT RightFoot
				{
					OFFSET 0.708754 -10.717769 -1.945823
					CHANNELS 3 Zrotation Yrotation Xrotation
					JOINT RightToeBase
					{
						OFFSET -0.108140 -7.191069 7.372968
						CHANNELS 3 Zrotation Yrotation Xrotation
						End Site
						{
							OFFSET 0.000000 0.000000 0.000000
						}
					}
				}
			}
		}
	}
	JOINT Spine_virtual
	{
		OFFSET 0.000000 0.000000 0.000000
		CHANNELS 3 Zrotation Yrotation Xrotation
		JOINT Spine
		{
			OFFSET 0.000000 6.876099 0.125700
			CHANNELS 3 Zrotation Yrotation Xrotation
			JOINT Spine1
			{
				OFFSET 0.000000 8.022060 0.146608
				CHANNELS 3 Zrotation Yrotation Xrotation
				JOINT Spine2
				{
					OFFSET 0.000000 9.168068 0.167552
					CHANNELS 3 Zrotation Yrotation Xrotation
					JOINT Neck_virtual
					{
						OFFSET 0.000000 0.000000 0.000000
						CHANNELS 3 Zrotation Yrotation Xrotation
						JOINT Neck
						{
							OFFSET 0.000000 10.314075 0.188496
							CHANNELS 3 Zrotation Yrotation Xrotation
							JOINT Head
							{
								OFFSET 0.000000 7.643700 -2.377400
								CHANNELS 3 Zrotation Yrotation Xrotation
								End Site
								{
									OFFSET 0.000000 0.000000 0.000000
								}
							}
						}
					}
					JOINT LeftShoulder_virtual
					{
						OFFSET 0.000000 0.000000 0.000000
						CHANNELS 3 Zrotation Yrotation Xrotation
						JOINT LeftShoulder
						{
							OFFSET 4.392200 8.824978 0.174984
							CHANNELS 3 Zrotation Yrotation Xrotation
							JOINT LeftArm
							{
								OFFSET 8.771219 -2.981674 -0.026999
								CHANNELS 3 Zrotation Yrotation Xrotation
								JOINT LeftForeArm
								{
									OFFSET 8.512804 0.000000 -0.000000
									CHANNELS 3 Zrotation Yrotation Xrotation
									JOINT LeftHand
									{
										OFFSET 18.484802 0.000000 -0.000000
										CHANNELS 3 Zrotation Yrotation Xrotation
										End Site
										{
											OFFSET 0.000000 0.000000 0.000000
										}
									}
								}
							}
						}
					}
					JOINT RightShoulder_virtual
					{
						OFFSET 0.000000 0.000000 0.000000
						CHANNELS 3 Zrotation Yrotation Xrotation
						JOINT RightShoulder
						{
							OFFSET -4.392200 8.824993 0.141379
							CHANNELS 3 Zrotation Yrotation Xrotation
							JOINT RightArm
							{
								OFFSET -8.771282 -2.981682 -0.094208
								CHANNELS 3 Zrotation Yrotation Xrotation
								JOINT RightForeArm
								{
									OFFSET -8.494598 0.000000 0.000000
									CHANNELS 3 Zrotation Yrotation Xrotation
									JOINT RightHand
									{
										OFFSET -18.483803 0.000000 0.000001
										CHANNELS 3 Zrotation Yrotation Xrotation
										End Site
										{
											OFFSET 0.000000 0.000000 0.000000
										}
									}
								}
							}
						}
					}
				}
			}
		}
	}
}
MOTION
Frames: 12
Frame Time: 0.033333
-3.383232 24.385040 -5.781770 -179.973572 6.210327 -179.708465 3.251914 -5.479393 -6.329634 -18.960387 -4.181889 -71.589692 24.220488 -5.028082 78.715956 -1.627793 -8.797616 10.117313 0.000000 0.000000 0.000000 2.492182 2.009740 -5.414887 14.098226 5.083280 -57.995109 -1.870435 1.413192 61.349784 -2.397850 0.609188 6.141079 0.000000 0.000000 0.000000 2.291008 0.528985 -14.386977 2.905451 0.733512 -1.846711 -1.622929 -1.970568 15.726693 -0.017528 -0.047957 0.059525 -2.155526 -0.718064 19.437537 -1.559653 -7.337478 27.877602 0.000000 0.000000 0.000000 -0.491568 -0.454964 15.464774 -10.161757 -8.135651 3.676991 -56.134139 3.851042 10.962683 162.747876 -86.628730 -149.922352 0.000000 0.000000 0.000000 -3.532025 0.684280 15.035727 18.526077 11.265349 2.242217 57.416776 -10.453145 19.276839 -168.126090 73.738149 -174.415164 0.000000 0.000000 0.000000 
-3.352733 24.406816 -5.822125 179.997328 6.268439 -179.703903 3.145821 -5.408548 -6.200743 -19.017388 -4.134834 -71.633801 24.129066 -5.207446 78.777380 -1.786796 -8.552471 9.934856 0.000000 0.000000 0.000000 2.427888 2.039119 -5.324283 14.118938 5.260246 -57.901535 -1.846785 1.382088 61.199308 -2.541241 0.645222 6.143865 0.000000 0.000000 0.000000 2.210362 0.604998 -14.398348 2.856230 0.659912 -1.866083 -1.612403 -2.015965 15.672207 0.006160 -0.057204 0.035982 -2.154057 -0.749252 19.223081 -1.356571 -7.321440 27.719218 0.000000 0.000000 0.000000 -0.476899 -0.446113 15.264069 -10.053929 -7.793508 3.412513 -56.285332 4.005777 11.264860 163.330887 -86.562252 -150.528722 0.000000 0.000000 0.000000 -3.520871 0.708131 14.823761 18.584031 11.154439 2.282174 57.330210 -10.556204 19.332152 -168.022899 73.732807 -174.473822 0.000000 0.000000 0.000000 
-3.317812 24.425980 -5.845324 -179.962330 6.374846 -179.747575 3.168997 -5.241972 -6.045135 -18.874463 -4.137952 -71.638234 24.117517 -5.172962 78.814058 -2.108256 -8.505061 9.836441 0.000000 0.000000 0.000000 2.436002 2.105102 -5.215455 14.270235 5.419371 -57.770956 -1.917784 1.503044 61.046551 -2.758952 0.768502 6.163561 0.000000 0.000000 0.000000 2.166330 0.728303 -14.316771 2.793825 0.604082 -1.908307 -1.577551 -2.023091 15.478214 -0.020038 -0.004382 0.051468 -2.105176 -0.836362 19.132109 -1.138111 -7.267367 27.520640 0.000000 0.000000 0.000000 -0.454062 -0.582677 15.172241 -9.946998 -7.499261 3.253727 -56.340571 4.227388 11.538482 163.820885 -86.498540 -150.965827 0.000000 0.000000 0.000000 -3.465430 0.639121 14.680530 18.619760 11.076085 2.288520 57.203866 -10.670487 19.261381 -168.166088 73.878311 -174.793051 0.000000 0.000000 0.000000 
-3.277553 24.444012 -5.865726 179.950117 6.321496 -179.731018 2.931264 -5.305206 -5.899705 -18.881734 -4.041927 -71.763623 24.005929 -5.476239 78.804243 -2.233027 -8.271172 9.621752 0.000000 0.000000 0.000000 2.369948 1.976461 -5.121170 14.256087 5.477095 -57.666734 -1.764149 1.340301 60.819795 -2.903529 0.768793 6.157781 0.000000 0.000000 0.000000 2.060793 0.742979 -14.311342 2.613581 0.475981 -1.926682 -1.552207 -2.084774 15.406402 0.018645 -0.021236 0.010961 -2.089369 -0.841423 18.946342 -0.965950 -7.188751 27.303374 0.000000 0.000000 0.000000 -0.381739 -0.502053 14.970159 -9.875157 -7.221565 3.050401 -56.409293 4.348103 11.952858 164.310801 -86.490720 -151.324398 0.000000 0.000000 0.000000 -3.485634 0.515762 14.579114 18.622927 11.068311 2.181571 57.100890 -10.902943 19.409948 -168.345749 73.909197 -175.167673 0.000000 0.000000 0.000000 
-3.238005 24.460815 -5.881443 -179.948041 6.366408 -179.768407 2.875989 -5.227655 -5.744752 -18.912772 -3.842398 -71.802104 23.844131 -5.723662 78.832254 -2.447737 -8.056381 9.495181 0.000000 0.000000 0.000000 2.440923 1.963999 -5.008080 14.414108 5.509964 -57.545587 -1.871768 1.350794 60.628584 -3.152479 0.947040 6.145738 0.000000 0.000000 0.000000 2.111840 0.810567 -14.216969 2.475156 0.341460 -1.960676 -1.474668 -2.134665 15.231703 0.008004 -0.046160 0.036885 -2.037489 -0.886974 18.869881 -0.750884 -7.071790 27.165112 0.000000 0.000000 0.000000 -0.342756 -0.504701 14.898465 -9.800787 -7.161295 2.906953 -56.331207 4.393645 12.357364 164.735010 -86.526722 -151.559685 0.000000 0.000000 0.000000 -3.370396 0.574663 14.377015 18.490645 10.952873 2.070783 56.776268 -10.928109 19.581345 -168.403696 74.024470 -175.458448 0.000000 0.000000 0.000000 
-3.208331 24.476770 -5.916387 -179.988803 6.339018 -179.756891 2.860623 -5.239324 -5.682049 -18.603634 -4.068349 -71.810587 23.795718 -5.600356 78.977259 -2.524882 -8.058096 9.389861 0.000000 0.000000 0.000000 2.395075 1.877913 -4.873907 14.409782 5.577842 -57.434309 -1.724379 1.126555 60.462276 -3.318817 0.816469 6.152716 0.000000 0.000000 0.000000 2.096128 0.906609 -14.243243 2.264124 0.217162 -1.932888 -1.436709 -2.141167 15.163476 0.020157 -0.028604 -0.020241 -1.967741 -0.919239 18.666924 -0.579392 -6.961281 26.971119 0.000000 0.000000 0.000000 -0.231433 -0.576937 14.630687 -9.865215 -7.124236 2.869576 -56.407148 4.400703 12.772636 163.348400 -86.675982 -149.954741 0.000000 0.000000 0.000000 -3.305543 0.507458 14.157258 18.325398 10.826770 2.026748 56.662355 -10.781144 19.793659 -168.614339 74.230933 -175.960891 0.000000 0.000000 0.000000 
-3.179025 24.485813 -5.959311 179.983121 6.506043 -179.775811 2.773273 -5.048577 -5.589604 -18.454252 -4.144307 -71.842955 23.859237 -5.650804 79.159673 -2.527980 -8.331901 9.205876 0.000000 0.000000 0.000000 2.397651 1.956547 -4.721717 14.500989 5.516891 -57.421919 -1.623889 1.110711 60.439149 -3.477502 1.085833 6.124463 0.000000 0.000000 0.000000 2.115673 1.038965 -14.180149 2.105657 0.138060 -1.896920 -1.389732 -2.100815 15.061013 0.026640 0.013399 -0.028747 -1.929986 -0.926481 18.515717 -0.339717 -6.838694 26.794064 0.000000 0.000000 0.000000 -0.225822 -0.587441 14.543476 -9.974177 -7.276150 2.842021 -56.371190 4.297363 12.813726 163.448285 -86.926800 -149.836278 0.000000 0.000000 0.000000 -3.274169 0.436313 13.974886 18.066837 10.766785 1.636556 56.383191 -10.557195 19.979138 -169.236242 74.794492 -176.958453 0.000000 0.000000 0.000000 
-3.157507 24.490759 -5.989256 -179.986235 6.468932 -179.832925 2.882942 -5.137447 -5.522544 -17.821145 -4.466811 -71.821679 24.057818 -5.192389 79.461205 -2.762218 -8.588107 9.078898 0.000000 0.000000 0.000000 2.431221 1.823285 -4.518840 14.625052 5.455872 -57.488459 -1.761489 1.053828 60.460145 -3.570935 1.144411 6.080122 0.000000 0.000000 0.000000 2.174092 1.019520 -13.962852 1.980312 0.014240 -1.848198 -1.391580 -2.118956 14.877062 -0.022070 -0.054461 0.038676 -1.917471 -0.884853 18.330522 -0.110520 -6.775647 26.517339 0.000000 0.000000 0.000000 -0.213188 -0.463821 14.348878 -10.083988 -7.369186 2.812803 -56.403839 4.140505 12.604984 160.532108 -87.214064 -146.727831 0.000000 0.000000 0.000000 -3.220263 0.570407 13.801476 17.790312 10.836975 1.349036 56.262457 -10.125570 20.012717 -168.387071 75.656981 -176.555786 0.000000 0.000000 0.000000 
-3.152940 24.494675 -6.012368 -179.872308 6.537162 -179.839659 2.960209 -5.141715 -5.354324 -17.587920 -4.681582 -71.929118 23.983029 -5.270043 79.554615 -2.636111 -8.757616 8.877596 0.000000 0.000000 0.000000 2.682206 1.715710 -4.303069 14.695219 5.335211 -57.674903 -1.819218 0.974091 60.515210 -3.536936 1.242348 6.052601 0.000000 0.000000 0.000000 2.292634 1.056525 -13.645177 1.933930 -0.038374 -1.810928 -1.340022 -2.066167 14.689596 -0.022115 -0.023399 0.011562 -1.868897 -0.861656 18.178902 0.236269 -6.675958 26.321871 0.000000 0.000000 0.000000 -0.174765 -0.464127 14.209333 -10.228597 -7.607110 2.828659 -56.539155 3.995542 11.963484 156.351841 -87.461938 -142.403188 0.000000 0.000000 0.000000 -3.191874 0.532399 13.677290 17.504839 10.740025 1.052480 56.284372 -9.625075 19.225734 -168.432697 76.796011 -177.051139 0.000000 0.000000 0.000000 
-3.170139 24.505598 -6.020938 -179.925078 6.696628 -179.849987 2.826895 -5.088181 -5.083994 -17.327044 -5.032791 -72.146100 24.082141 -5.297958 79.541473 -2.487497 -9.067528 8.943762 0.000000 0.000000 0.000000 2.711170 1.724519 -4.066090 14.744667 5.194221 -57.993354 -2.019482 0.963654 60.544539 -3.474191 1.277168 5.992984 0.000000 0.000000 0.000000 2.257846 0.965427 -13.244666 1.864768 -0.015666 -1.765993 -1.249286 -1.948724 14.592240 -0.008320 -0.112103 -0.010242 -1.797159 -0.828131 17.954660 0.623102 -6.675069 26.142481 0.000000 0.000000 0.000000 -0.118910 -0.363111 13.922922 -10.360650 -7.752843 2.941973 -56.748504 3.964279 10.997078 151.172112 -87.740248 -137.129489 0.000000 0.000000 0.000000 -3.173594 0.634899 13.395207 17.201372 10.537467 0.819966 56.458009 -9.136605 17.814897 -166.874144 78.070708 -175.883505 0.000000 0.000000 0.000000 
-3.201969 24.523712 -6.012897 179.979706 6.683241 -179.845984 2.623887 -5.052716 -4.991935 -17.186137 -5.433642 -72.226641 24.226676 -5.361348 79.388149 -2.326664 -9.334525 9.118530 0.000000 0.000000 0.000000 2.711440 1.681139 -3.819531 14.667268 5.051235 -58.334002 -2.146849 0.946711 60.520366 -3.218362 1.368537 5.954958 0.000000 0.000000 0.000000 2.094849 1.089308 -12.725216 1.757549 -0.162942 -1.806822 -1.146944 -1.993482 14.365268 -0.006450 0.007718 0.024358 -1.630239 -0.857525 17.796927 1.001135 -6.733170 26.021482 0.000000 0.000000 0.000000 -0.030472 -0.432630 13.766354 -10.415364 -7.949941 3.012929 -56.835261 4.153425 9.791302 145.596861 -87.899781 -131.523803 0.000000 0.000000 0.000000 -3.054670 0.586253 13.209574 16.910558 10.101116 0.441014 56.762434 -8.698668 15.619886 -164.909289 79.363274 -174.165931 0.000000 0.000000 0.000000 
-3.227962 24.551035 -5.977528 179.981072 6.641314 -179.856243 2.586640 -4.939317 -4.689968 -17.047754 -6.037801 -72.431636 24.396205 -5.312144 78.783616 -2.206176 -9.512977 9.821225 0.000000 0.000000 0.000000 2.801248 1.678217 -3.529022 14.546841 4.896614 -58.602880 -2.252218 1.017723 60.334626 -2.921873 1.432701 6.014811 0.000000 0.000000 0.000000 1.911504 1.130371 -12.142755 1.689893 -0.292887 -1.818315 -1.022084 -2.018343 14.215370 0.022554 0.001924 0.016905 -1.497454 -0.840511 17.622952 1.489469 -6.732156 25.963672 0.000000 0.000000 0.000000 0.082273 -0.434026 13.584444 -10.426521 -7.979167 3.113756 -57.108902 4.597407 8.391469 141.695703 -88.048563 -127.632043 0.000000 0.000000 0.000000 -2.967927 0.591117 12.941765 16.794795 9.606968 0.337896 57.179926 -7.941138 12.736118 -160.550194 81.291163 -169.855344 0.000000 0.000000 0.000000 
